<svg version="1.1" id="Layer_1" xmlns="http://www.w3.org/2000/svg" xmlns:xlink="http://www.w3.org/1999/xlink" x="0px" y="0px"
	 width="100%" viewBox="0 0 400 400" enable-background="new 0 0 400 400" xml:space="preserve">
<path fill="#000000" opacity="1.000000" stroke="none" 
	d="
M273.000000,401.000000 
	C182.028275,401.000000 91.556557,401.000000 1.084830,401.000000 
	C1.056554,400.861664 1.003494,400.723328 1.003490,400.584991 
	C0.999973,267.459930 1.000000,134.334869 1.000000,1.104904 
	C134.221664,1.104904 267.443451,1.104904 400.832611,1.104904 
	C400.832611,134.333160 400.832611,267.666565 400.832611,401.000000 
	C358.473297,401.000000 315.986633,401.000000 273.000000,401.000000 
M243.500000,79.003120 
	C180.519424,79.003143 117.538864,78.996010 54.558292,79.008972 
	C41.260883,79.011711 32.010433,88.300682 32.008205,101.642395 
	C31.997162,167.788681 31.999075,233.934952 32.006485,300.081238 
	C32.008022,313.803955 41.133759,322.991394 54.781773,322.992523 
	C152.251740,323.000519 249.721695,323.000397 347.191650,322.992737 
	C360.848022,322.991638 369.991638,313.809967 369.993286,300.107788 
	C370.001251,234.128128 369.999847,168.148468 369.994415,102.168816 
	C369.993256,88.057945 360.999298,79.009766 346.968414,79.006073 
	C312.812286,78.997078 278.656128,79.003136 243.500000,79.003120 
z"/>
<path fill="#242021" opacity="1.000000" stroke="none" 
	d="
M244.000000,79.003128 
	C278.656128,79.003136 312.812286,78.997078 346.968414,79.006073 
	C360.999298,79.009766 369.993256,88.057945 369.994415,102.168816 
	C369.999847,168.148468 370.001251,234.128128 369.993286,300.107788 
	C369.991638,313.809967 360.848022,322.991638 347.191650,322.992737 
	C249.721695,323.000397 152.251740,323.000519 54.781773,322.992523 
	C41.133759,322.991394 32.008022,313.803955 32.006485,300.081238 
	C31.999075,233.934952 31.997162,167.788681 32.008205,101.642395 
	C32.010433,88.300682 41.260883,79.011711 54.558292,79.008972 
	C117.538864,78.996010 180.519424,79.003143 244.000000,79.003128 
M304.319824,263.521515 
	C305.170105,263.685547 306.020386,263.849548 307.510986,263.883331 
	C308.912018,260.472015 309.873108,263.566193 310.949768,264.673096 
	C311.054321,265.147217 311.158905,265.621338 311.263458,266.095459 
	C312.350800,265.277649 313.995117,264.661377 314.382660,263.590363 
	C314.853363,262.289459 314.264191,260.605042 314.074860,258.404053 
	C312.638977,260.580780 311.857422,261.765564 311.106720,262.100037 
	C311.091705,261.539185 311.076660,260.978333 311.027252,260.463501 
	C311.027252,260.463501 311.063599,260.507904 310.902832,259.735352 
	C309.941254,259.453796 308.979706,259.172241 308.017853,258.204773 
	C307.627045,257.613586 307.236237,257.022369 306.845428,256.431183 
	C306.233643,257.599548 305.621887,258.767914 304.345428,260.215851 
	C304.328369,261.141571 304.311310,262.067291 304.319824,263.521515 
M122.314331,284.469543 
	C122.540062,284.268127 122.786430,284.096344 123.877686,283.815857 
	C122.300476,275.120667 120.723267,266.425476 119.216072,258.116272 
	C115.080437,258.116272 111.984596,258.116272 108.713875,258.116272 
	C106.894836,266.512299 105.131393,274.651733 103.320984,283.007965 
	C104.717781,282.925598 105.821991,282.860474 107.199356,283.507233 
	C104.780708,284.950592 102.362061,286.393921 99.787743,287.056854 
	C99.933334,284.375946 100.078934,281.695038 100.220947,279.079956 
	C97.293068,279.079956 95.187782,279.079956 93.227493,279.079956 
	C92.756432,282.240570 92.326759,285.123444 91.717926,289.208405 
	C88.317955,284.184723 88.520348,266.905701 91.764961,263.330139 
	C92.331024,266.887085 92.795883,269.808136 93.277138,272.832214 
	C95.385620,272.832214 97.488327,272.832214 100.145821,272.832214 
	C100.145821,270.211884 100.261703,267.755951 100.122124,265.314606 
	C99.814972,259.942200 97.159599,257.668884 91.217888,257.504822 
	C85.115410,257.336334 81.548813,259.683899 81.297745,264.873444 
	C80.943909,272.187378 80.818123,279.556915 81.369408,286.844086 
	C81.544777,289.162140 83.757912,292.412109 85.820686,293.207581 
	C88.055458,294.069397 91.349243,292.946930 93.908539,291.973236 
	C96.101509,291.138977 97.909470,289.292694 100.681572,288.303223 
	C99.190445,290.060944 97.699326,291.818665 95.846054,294.003265 
	C107.568047,294.003265 118.616493,294.026581 129.664368,293.956421 
	C130.495682,293.951141 131.322769,293.279358 132.959274,292.928955 
	C134.239532,293.279449 135.519775,293.629944 137.306458,294.119080 
	C137.306458,283.827545 137.306458,274.238007 137.306458,264.440521 
	C139.226700,264.247772 140.816238,264.088226 142.496429,263.919556 
	C142.496429,261.841278 142.496429,259.972839 142.496429,258.048462 
	C136.236389,258.048462 130.315964,258.048462 124.246307,258.048462 
	C124.246307,260.175140 124.246307,262.082214 124.246307,263.980957 
	C126.105659,264.136749 127.718346,264.271851 130.068253,264.468750 
	C130.068253,273.398407 130.068253,282.157104 129.379349,290.974426 
	C126.931000,288.924133 124.482658,286.873840 122.314331,284.469543 
M238.554489,288.056885 
	C235.542511,287.590149 232.530548,287.123413 229.152542,286.599976 
	C229.152542,277.074310 229.152542,267.485870 229.152542,257.846985 
	C226.417114,257.846985 224.058624,257.846985 221.819214,257.846985 
	C221.819214,270.120209 221.819214,281.976654 221.819214,294.296204 
	C227.812042,293.988831 233.401978,293.702118 239.780914,293.967682 
	C244.555145,293.967682 249.329361,293.967682 254.213791,293.967682 
	C254.213791,291.516907 254.213791,289.468414 254.213791,287.285156 
	C251.473785,287.152679 249.076538,287.036804 246.241669,286.899750 
	C246.241669,276.802246 246.241669,267.251221 246.241669,257.790649 
	C243.524124,257.790649 241.287033,257.790649 238.998688,257.790649 
	C238.998688,267.761810 238.998688,277.378784 238.554489,288.056885 
M148.198654,115.344215 
	C143.929062,112.902519 139.918533,109.644379 135.335602,108.190178 
	C125.982864,105.222488 116.327820,105.745567 106.702339,107.654167 
	C94.709877,110.032097 87.371239,116.920334 85.590164,129.081863 
	C84.725502,134.985947 84.242348,141.000626 84.236374,146.965897 
	C84.215034,168.273392 84.811295,189.585663 84.529228,210.887589 
	C84.242287,232.556976 99.272064,246.071365 120.952553,242.822891 
	C121.892548,242.682068 122.980095,242.443314 123.667076,241.859634 
	C133.178986,233.777954 142.675217,225.676163 152.051407,217.438309 
	C153.341339,216.304977 154.659256,214.466278 154.781738,212.863785 
	C155.460709,203.980057 155.773911,195.068390 156.217026,186.072144 
	C146.125275,186.072144 137.025452,186.072144 127.484940,186.072144 
	C127.484940,188.118408 127.508286,189.921768 127.480850,191.724365 
	C127.369331,199.050034 127.256874,206.375763 127.114853,213.700867 
	C127.041428,217.487946 124.826546,219.478851 121.314804,220.042877 
	C117.509499,220.654053 115.327477,218.519485 114.283089,215.145233 
	C113.797691,213.577026 113.569702,211.865097 113.573479,210.219131 
	C113.627701,186.561447 113.739479,162.903900 113.846535,139.246368 
	C113.851799,138.081680 113.827240,136.899170 114.011024,135.756226 
	C114.640480,131.841660 116.768501,129.084686 120.922935,129.368195 
	C124.692970,129.625427 126.872772,132.160431 126.984818,136.065002 
	C127.194908,143.386292 127.330086,150.709763 127.479660,158.032684 
	C127.515327,159.778976 127.484947,161.526627 127.484947,163.175232 
	C137.067276,163.175232 145.834930,163.175232 155.005936,163.175232 
	C155.005936,152.854034 155.733383,142.796066 154.730209,132.913788 
	C154.138443,127.084290 150.804596,121.533150 148.198654,115.344215 
M307.343079,129.519089 
	C309.469360,129.519089 311.595642,129.519089 313.771423,129.519089 
	C313.771423,121.385429 313.771423,113.786873 313.771423,106.116638 
	C290.315186,106.116638 267.095184,106.116638 243.812027,106.116638 
	C243.812027,113.984657 243.812027,121.554840 243.812027,129.449646 
	C250.919968,129.449646 257.705902,129.449646 264.992371,129.449646 
	C264.992371,131.571930 264.992371,133.365814 264.992371,135.159714 
	C264.992371,158.319702 264.985291,181.479691 264.996765,204.639679 
	C265.000214,211.636032 262.957947,219.624115 265.667542,225.353943 
	C268.460693,231.260483 276.038177,234.823822 281.263214,239.690659 
	C284.515808,242.720261 287.951935,243.590469 292.563263,242.306931 
	C292.563263,204.902161 292.563263,167.488724 292.563263,129.519043 
	C297.476654,129.519043 301.926666,129.519043 307.343079,129.519089 
M192.626923,105.828476 
	C190.473465,105.828476 188.319992,105.828476 185.747894,105.828476 
	C178.560654,139.558044 171.414093,173.096588 164.016876,207.811539 
	C178.087845,196.121170 191.237442,185.196289 204.511368,174.168106 
	C217.849258,185.215607 231.028778,196.131927 245.101959,207.788437 
	C237.904160,174.102036 230.932404,141.774780 224.184341,109.400902 
	C223.546768,106.342110 222.339478,105.735596 219.588760,105.778648 
	C210.927628,105.914230 202.263046,105.828522 192.626923,105.828476 
M139.127533,242.841400 
	C184.101685,242.841400 229.075836,242.841400 275.490265,242.841400 
	C251.018997,222.478912 227.797653,203.156479 204.513290,183.781601 
	C180.983322,203.396164 157.851776,222.678589 133.664154,242.841385 
	C136.326294,242.841385 137.317993,242.841385 139.127533,242.841400 
M163.142456,288.346985 
	C163.142456,290.122406 163.142456,291.897797 163.142456,293.702881 
	C166.062088,293.702881 168.440094,293.702881 171.252975,293.702881 
	C171.252975,288.518372 171.252975,283.643646 171.252975,278.768890 
	C171.790253,278.672638 172.327545,278.576385 172.864822,278.480133 
	C177.695847,282.505646 172.994171,289.096710 175.698044,293.681824 
	C178.097458,293.681824 180.477341,293.681824 182.842743,293.681824 
	C182.806381,278.106873 182.806381,278.106873 179.460464,274.627472 
	C183.753220,271.114258 183.532791,266.579529 181.910645,262.013855 
	C180.311066,257.511688 176.180389,257.565491 172.324417,257.473785 
	C169.383301,257.403839 166.439209,257.459869 163.142456,257.459869 
	C163.142456,267.842957 163.142456,277.612854 163.142456,288.346985 
M298.835602,293.894745 
	C298.654144,287.336761 301.558319,280.319794 295.998322,274.527985 
	C299.411041,270.956757 300.685852,265.285461 298.064758,261.439270 
	C293.451019,254.669144 286.346466,258.503662 280.190186,257.371735 
	C280.190186,269.937225 280.190186,281.937408 280.190186,293.879242 
	C282.721497,293.879242 284.869629,293.879242 287.748352,293.879242 
	C287.748352,288.749664 287.748352,283.744873 287.748352,278.740082 
	C293.927063,282.697113 289.759796,288.950867 292.302795,294.007660 
	C294.050293,294.007660 296.020447,294.007660 298.835602,293.894745 
M269.758698,289.895355 
	C269.878998,291.171021 269.999298,292.446686 270.128113,293.812683 
	C272.897400,293.812683 275.332306,293.812683 278.210419,293.812683 
	C276.651123,284.256927 275.213745,274.950684 273.595276,265.676025 
	C272.097717,257.094299 272.012146,257.105408 263.064026,257.568024 
	C262.785492,257.582428 262.520569,257.859772 262.003662,258.154724 
	C259.971527,269.856506 257.910736,281.723267 255.822388,293.748657 
	C258.743652,293.748657 261.163086,293.748657 263.718353,293.748657 
	C263.972687,291.744263 264.196167,289.983093 264.520081,287.430450 
	C266.421722,288.027435 267.997742,288.522186 269.758698,289.895355 
M149.706696,294.027191 
	C153.157410,294.027191 156.608124,294.027191 160.222931,294.027191 
	C160.222931,291.564301 160.222931,289.512726 160.222931,287.310852 
	C157.498062,287.159973 155.097076,287.027039 152.820572,286.901001 
	C152.820572,283.954681 152.820572,281.517700 152.820572,278.853760 
	C155.294891,278.649261 157.532379,278.464355 159.845978,278.273163 
	C159.845978,276.032318 159.845978,274.077057 159.845978,272.009918 
	C157.431931,271.842407 155.189621,271.686798 152.923645,271.529572 
	C152.923645,268.956543 152.923645,266.737213 152.923645,264.399414 
	C155.560745,264.255493 157.846588,264.130737 160.133636,264.005951 
	C160.133636,261.750183 160.133636,259.720734 160.133636,257.792908 
	C154.824646,257.792908 149.944992,257.792908 145.059845,257.792908 
	C145.059845,270.027313 145.059845,281.908417 145.059845,294.027191 
	C146.475464,294.027191 147.627609,294.027191 149.706696,294.027191 
M186.985458,262.702393 
	C186.985458,273.114502 186.985458,283.526581 186.985458,293.737122 
	C189.954788,293.737122 192.223923,293.737122 194.937393,293.737122 
	C194.937393,289.387695 194.937393,285.300598 194.937393,281.267303 
	C205.000275,280.553406 207.179993,277.239014 205.809906,265.392334 
	C204.951904,257.973267 200.436493,256.132996 187.183853,257.946960 
	C187.119553,259.181335 187.052505,260.468323 186.985458,262.702393 
M213.438995,294.033844 
	C214.479309,293.364868 216.415146,292.710602 216.426407,292.024689 
	C216.613785,280.622589 216.559921,269.216522 216.559921,257.693726 
	C213.662872,257.693726 211.417725,257.693726 208.980957,257.693726 
	C208.980957,269.872070 208.980957,281.785156 208.980957,293.848083 
	C210.261917,293.914703 211.409195,293.974396 213.438995,294.033844 
M311.483856,256.599060 
	C311.483856,256.599060 311.423431,256.493256 311.483856,256.599060 
z"/>
<path fill="#FCFBFB" opacity="1.000000" stroke="none" 
	d="
M148.451294,115.600517 
	C150.804596,121.533150 154.138443,127.084290 154.730209,132.913788 
	C155.733383,142.796066 155.005936,152.854034 155.005936,163.175232 
	C145.834930,163.175232 137.067276,163.175232 127.484947,163.175232 
	C127.484947,161.526627 127.515327,159.778976 127.479660,158.032684 
	C127.330086,150.709763 127.194908,143.386292 126.984818,136.065002 
	C126.872772,132.160431 124.692970,129.625427 120.922935,129.368195 
	C116.768501,129.084686 114.640480,131.841660 114.011024,135.756226 
	C113.827240,136.899170 113.851799,138.081680 113.846535,139.246368 
	C113.739479,162.903900 113.627701,186.561447 113.573479,210.219131 
	C113.569702,211.865097 113.797691,213.577026 114.283089,215.145233 
	C115.327477,218.519485 117.509499,220.654053 121.314804,220.042877 
	C124.826546,219.478851 127.041428,217.487946 127.114853,213.700867 
	C127.256874,206.375763 127.369331,199.050034 127.480850,191.724365 
	C127.508286,189.921768 127.484940,188.118408 127.484940,186.072144 
	C137.025452,186.072144 146.125275,186.072144 156.217026,186.072144 
	C155.773911,195.068390 155.460709,203.980057 154.781738,212.863785 
	C154.659256,214.466278 153.341339,216.304977 152.051407,217.438309 
	C142.675217,225.676163 133.178986,233.777954 123.667076,241.859634 
	C122.980095,242.443314 121.892548,242.682068 120.952553,242.822891 
	C99.272064,246.071365 84.242287,232.556976 84.529228,210.887589 
	C84.811295,189.585663 84.215034,168.273392 84.236374,146.965897 
	C84.242348,141.000626 84.725502,134.985947 85.590164,129.081863 
	C87.371239,116.920334 94.709877,110.032097 106.702339,107.654167 
	C116.327820,105.745567 125.982864,105.222488 135.335602,108.190178 
	C139.918533,109.644379 143.929062,112.902519 148.451294,115.600517 
z"/>
<path fill="#FBFBFB" opacity="1.000000" stroke="none" 
	d="
M306.859894,129.519073 
	C301.926666,129.519043 297.476654,129.519043 292.563263,129.519043 
	C292.563263,167.488724 292.563263,204.902161 292.563263,242.306931 
	C287.951935,243.590469 284.515808,242.720261 281.263214,239.690659 
	C276.038177,234.823822 268.460693,231.260483 265.667542,225.353943 
	C262.957947,219.624115 265.000214,211.636032 264.996765,204.639679 
	C264.985291,181.479691 264.992371,158.319702 264.992371,135.159714 
	C264.992371,133.365814 264.992371,131.571930 264.992371,129.449646 
	C257.705902,129.449646 250.919968,129.449646 243.812027,129.449646 
	C243.812027,121.554840 243.812027,113.984657 243.812027,106.116638 
	C267.095184,106.116638 290.315186,106.116638 313.771423,106.116638 
	C313.771423,113.786873 313.771423,121.385429 313.771423,129.519089 
	C311.595642,129.519089 309.469360,129.519089 306.859894,129.519073 
z"/>
<path fill="#FDFCFC" opacity="1.000000" stroke="none" 
	d="
M193.113358,105.828476 
	C202.263046,105.828522 210.927628,105.914230 219.588760,105.778648 
	C222.339478,105.735596 223.546768,106.342110 224.184341,109.400902 
	C230.932404,141.774780 237.904160,174.102036 245.101959,207.788437 
	C231.028778,196.131927 217.849258,185.215607 204.511368,174.168106 
	C191.237442,185.196289 178.087845,196.121170 164.016876,207.811539 
	C171.414093,173.096588 178.560654,139.558044 185.747894,105.828476 
	C188.319992,105.828476 190.473465,105.828476 193.113358,105.828476 
M199.683624,153.088257 
	C198.784012,157.263718 197.884399,161.439194 196.963760,165.712219 
	C202.138885,165.712219 207.010193,165.712219 212.139191,165.712219 
	C210.851715,159.719589 209.641235,154.063690 208.420578,148.409973 
	C207.226120,142.877655 206.021286,137.347610 204.821014,131.816559 
	C204.595520,131.839920 204.370041,131.863281 204.144547,131.886658 
	C202.716644,138.678955 201.288742,145.471268 199.683624,153.088257 
z"/>
<path fill="#FCEE00" opacity="1.000000" stroke="none" 
	d="
M138.718613,242.841400 
	C137.317993,242.841385 136.326294,242.841385 133.664154,242.841385 
	C157.851776,222.678589 180.983322,203.396164 204.513290,183.781601 
	C227.797653,203.156479 251.018997,222.478912 275.490265,242.841400 
	C229.075836,242.841400 184.101685,242.841400 138.718613,242.841400 
z"/>
<path fill="#F6F6F6" opacity="1.000000" stroke="none" 
	d="
M163.142456,287.864868 
	C163.142456,277.612854 163.142456,267.842957 163.142456,257.459869 
	C166.439209,257.459869 169.383301,257.403839 172.324417,257.473785 
	C176.180389,257.565491 180.311066,257.511688 181.910645,262.013855 
	C183.532791,266.579529 183.753220,271.114258 179.460464,274.627472 
	C182.806381,278.106873 182.806381,278.106873 182.842743,293.681824 
	C180.477341,293.681824 178.097458,293.681824 175.698044,293.681824 
	C172.994171,289.096710 177.695847,282.505646 172.864822,278.480133 
	C172.327545,278.576385 171.790253,278.672638 171.252975,278.768890 
	C171.252975,283.643646 171.252975,288.518372 171.252975,293.702881 
	C168.440094,293.702881 166.062088,293.702881 163.142456,293.702881 
	C163.142456,291.897797 163.142456,290.122406 163.142456,287.864868 
M175.013046,267.602783 
	C174.087891,266.331360 173.162720,265.059937 172.237564,263.788483 
	C171.931641,264.054749 171.625702,264.320984 171.319778,264.587219 
	C171.319778,266.950439 171.319778,269.313629 171.319778,271.676849 
	C171.732925,271.867828 172.146057,272.058807 172.559204,272.249786 
	C173.377213,270.970673 174.195236,269.691559 175.013046,267.602783 
z"/>
<path fill="#F6F6F6" opacity="1.000000" stroke="none" 
	d="
M298.413116,293.951202 
	C296.020447,294.007660 294.050293,294.007660 292.302795,294.007660 
	C289.759796,288.950867 293.927063,282.697113 287.748352,278.740082 
	C287.748352,283.744873 287.748352,288.749664 287.748352,293.879242 
	C284.869629,293.879242 282.721497,293.879242 280.190186,293.879242 
	C280.190186,281.937408 280.190186,269.937225 280.190186,257.371735 
	C286.346466,258.503662 293.451019,254.669144 298.064758,261.439270 
	C300.685852,265.285461 299.411041,270.956757 295.998322,274.527985 
	C301.558319,280.319794 298.654144,287.336761 298.413116,293.951202 
M291.087860,270.572845 
	C291.930450,267.579773 292.309479,264.819824 287.345795,263.851257 
	C287.345795,266.142700 287.335388,267.890900 287.348175,269.638916 
	C287.368439,272.407562 288.883118,271.998108 291.087860,270.572845 
z"/>
<path fill="#F7F7F7" opacity="1.000000" stroke="none" 
	d="
M269.666199,289.456177 
	C267.997742,288.522186 266.421722,288.027435 264.520081,287.430450 
	C264.196167,289.983093 263.972687,291.744263 263.718353,293.748657 
	C261.163086,293.748657 258.743652,293.748657 255.822388,293.748657 
	C257.910736,281.723267 259.971527,269.856506 262.003662,258.154724 
	C262.520569,257.859772 262.785492,257.582428 263.064026,257.568024 
	C272.012146,257.105408 272.097717,257.094299 273.595276,265.676025 
	C275.213745,274.950684 276.651123,284.256927 278.210419,293.812683 
	C275.332306,293.812683 272.897400,293.812683 270.128113,293.812683 
	C269.999298,292.446686 269.878998,291.171021 269.666199,289.456177 
z"/>
<path fill="#F2F2F2" opacity="1.000000" stroke="none" 
	d="
M149.243225,294.027191 
	C147.627609,294.027191 146.475464,294.027191 145.059845,294.027191 
	C145.059845,281.908417 145.059845,270.027313 145.059845,257.792908 
	C149.944992,257.792908 154.824646,257.792908 160.133636,257.792908 
	C160.133636,259.720734 160.133636,261.750183 160.133636,264.005951 
	C157.846588,264.130737 155.560745,264.255493 152.923645,264.399414 
	C152.923645,266.737213 152.923645,268.956543 152.923645,271.529572 
	C155.189621,271.686798 157.431931,271.842407 159.845978,272.009918 
	C159.845978,274.077057 159.845978,276.032318 159.845978,278.273163 
	C157.532379,278.464355 155.294891,278.649261 152.820572,278.853760 
	C152.820572,281.517700 152.820572,283.954681 152.820572,286.901001 
	C155.097076,287.027039 157.498062,287.159973 160.222931,287.310852 
	C160.222931,289.512726 160.222931,291.564301 160.222931,294.027191 
	C156.608124,294.027191 153.157410,294.027191 149.243225,294.027191 
z"/>
<path fill="#F9F8F8" opacity="1.000000" stroke="none" 
	d="
M99.887703,287.894012 
	C97.909470,289.292694 96.101509,291.138977 93.908539,291.973236 
	C91.349243,292.946930 88.055458,294.069397 85.820686,293.207581 
	C83.757912,292.412109 81.544777,289.162140 81.369408,286.844086 
	C80.818123,279.556915 80.943909,272.187378 81.297745,264.873444 
	C81.548813,259.683899 85.115410,257.336334 91.217888,257.504822 
	C97.159599,257.668884 99.814972,259.942200 100.122124,265.314606 
	C100.261703,267.755951 100.145821,270.211884 100.145821,272.832214 
	C97.488327,272.832214 95.385620,272.832214 93.277138,272.832214 
	C92.795883,269.808136 92.331024,266.887085 91.764961,263.330139 
	C88.520348,266.905701 88.317955,284.184723 91.717926,289.208405 
	C92.326759,285.123444 92.756432,282.240570 93.227493,279.079956 
	C95.187782,279.079956 97.293068,279.079956 100.220947,279.079956 
	C100.078934,281.695038 99.933334,284.375946 99.879562,287.492340 
	C99.971390,287.927826 99.887703,287.894012 99.887703,287.894012 
z"/>
<path fill="#F8F7F7" opacity="1.000000" stroke="none" 
	d="
M186.985458,262.228882 
	C187.052505,260.468323 187.119553,259.181335 187.183853,257.946960 
	C200.436493,256.132996 204.951904,257.973267 205.809906,265.392334 
	C207.179993,277.239014 205.000275,280.553406 194.937393,281.267303 
	C194.937393,285.300598 194.937393,289.387695 194.937393,293.737122 
	C192.223923,293.737122 189.954788,293.737122 186.985458,293.737122 
	C186.985458,283.526581 186.985458,273.114502 186.985458,262.228882 
M198.000153,270.479889 
	C197.611191,268.305267 197.222214,266.130646 196.833237,263.956024 
	C196.274246,264.058929 195.715240,264.161835 195.156250,264.264740 
	C195.156250,267.549866 195.156250,270.834961 195.156250,274.120087 
	C195.503799,274.259369 195.851334,274.398682 196.198883,274.537964 
	C196.798477,273.485138 197.398071,272.432281 198.000153,270.479889 
z"/>
<path fill="#F0F0F0" opacity="1.000000" stroke="none" 
	d="
M238.991913,293.415405 
	C233.401978,293.702118 227.812042,293.988831 221.819214,294.296204 
	C221.819214,281.976654 221.819214,270.120209 221.819214,257.846985 
	C224.058624,257.846985 226.417114,257.846985 229.152542,257.846985 
	C229.152542,267.485870 229.152542,277.074310 229.152542,286.599976 
	C232.530548,287.123413 235.542511,287.590149 238.778381,287.933899 
	C238.998825,289.679077 238.995361,291.547241 238.991913,293.415405 
z"/>
<path fill="#F1F0F0" opacity="1.000000" stroke="none" 
	d="
M239.386414,293.691528 
	C238.995361,291.547241 238.998825,289.679077 239.000488,287.403320 
	C238.998688,277.378784 238.998688,267.761810 238.998688,257.790649 
	C241.287033,257.790649 243.524124,257.790649 246.241669,257.790649 
	C246.241669,267.251221 246.241669,276.802246 246.241669,286.899750 
	C249.076538,287.036804 251.473785,287.152679 254.213791,287.285156 
	C254.213791,289.468414 254.213791,291.516907 254.213791,293.967682 
	C249.329361,293.967682 244.555145,293.967682 239.386414,293.691528 
z"/>
<path fill="#F5F5F5" opacity="1.000000" stroke="none" 
	d="
M106.926201,282.795349 
	C105.821991,282.860474 104.717781,282.925598 103.320984,283.007965 
	C105.131393,274.651733 106.894836,266.512299 108.713875,258.116272 
	C111.984596,258.116272 115.080437,258.116272 119.216072,258.116272 
	C120.723267,266.425476 122.300476,275.120667 123.337784,283.585876 
	C121.890198,282.890656 120.982506,282.425385 120.045319,281.979736 
	C120.015823,281.999329 120.060608,281.945312 120.102768,281.631958 
	C119.774803,281.193481 119.404686,281.068359 119.017288,280.971619 
	C119.000000,281.000000 119.034836,280.943359 118.979393,280.589691 
	C117.212494,278.842041 115.501030,277.448059 113.540031,275.850830 
	C112.199150,277.382263 111.084106,278.655762 109.965050,279.944214 
	C109.961044,279.959106 109.930618,279.964417 109.615982,279.909851 
	C108.538437,280.566162 107.775520,281.277008 106.774643,282.197449 
	C106.657089,282.580872 106.777496,282.754639 106.939651,282.902527 
	C106.981400,282.876617 106.926201,282.795349 106.926201,282.795349 
z"/>
<path fill="#EFEFEF" opacity="1.000000" stroke="none" 
	d="
M212.997742,294.033966 
	C211.409195,293.974396 210.261917,293.914703 208.980957,293.848083 
	C208.980957,281.785156 208.980957,269.872070 208.980957,257.693726 
	C211.417725,257.693726 213.662872,257.693726 216.559921,257.693726 
	C216.559921,269.216522 216.613785,280.622589 216.426407,292.024689 
	C216.415146,292.710602 214.479309,293.364868 212.997742,294.033966 
z"/>
<path fill="#FDFDFD" opacity="1.000000" stroke="none" 
	d="
M130.068253,290.915802 
	C130.068253,282.157104 130.068253,273.398407 130.068253,264.468750 
	C127.718346,264.271851 126.105659,264.136749 124.246307,263.980957 
	C124.246307,262.082214 124.246307,260.175140 124.246307,258.048462 
	C130.315964,258.048462 136.236389,258.048462 142.496429,258.048462 
	C142.496429,259.972839 142.496429,261.841278 142.496429,263.919556 
	C140.816238,264.088226 139.226700,264.247772 137.306458,264.440521 
	C137.306458,274.238007 137.306458,283.827545 137.306458,294.119080 
	C135.519775,293.629944 134.239532,293.279449 132.436157,292.650391 
	C131.298096,291.886505 130.683167,291.401154 130.068253,290.915802 
z"/>
<path fill="#FBED01" opacity="1.000000" stroke="none" 
	d="
M129.723801,290.945129 
	C130.683167,291.401154 131.298096,291.886505 132.032425,292.644653 
	C131.322769,293.279358 130.495682,293.951141 129.664368,293.956421 
	C118.616493,294.026581 107.568047,294.003265 95.846054,294.003265 
	C97.699326,291.818665 99.190445,290.060944 100.284637,288.098633 
	C99.887703,287.894012 99.971390,287.927826 99.957397,287.882538 
	C102.362061,286.393921 104.780708,284.950592 107.062775,283.151306 
	C106.926201,282.795349 106.981400,282.876617 107.220978,283.065002 
	C107.632019,283.121033 107.803467,282.988708 108.320099,282.726746 
	C109.087059,281.719513 109.508835,280.841949 109.930618,279.964417 
	C109.930618,279.964417 109.961044,279.959106 110.203583,280.320251 
	C112.570473,279.100433 114.632988,278.201782 116.827217,280.694885 
	C117.189507,281.106506 118.280571,280.876709 119.034836,280.943359 
	C119.034836,280.943359 119.000000,281.000000 118.766891,281.377655 
	C119.042732,281.818634 119.551674,281.881958 120.060608,281.945312 
	C120.060608,281.945312 120.015823,281.999329 119.721832,282.185669 
	C120.296669,283.189178 121.165497,284.006348 122.034325,284.823547 
	C124.482658,286.873840 126.931000,288.924133 129.723801,290.945129 
z"/>
<path fill="#504D4E" opacity="1.000000" stroke="none" 
	d="
M311.075897,262.950317 
	C311.857422,261.765564 312.638977,260.580780 314.074860,258.404053 
	C314.264191,260.605042 314.853363,262.289459 314.382660,263.590363 
	C313.995117,264.661377 312.350800,265.277649 311.263458,266.095459 
	C311.158905,265.621338 311.054321,265.147217 310.970032,264.102264 
	C311.018860,263.337738 311.047363,263.144012 311.075897,262.950317 
z"/>
<path fill="#8F8D8E" opacity="1.000000" stroke="none" 
	d="
M311.091309,262.525177 
	C311.047363,263.144012 311.018860,263.337738 310.998169,263.825562 
	C309.873108,263.566193 308.912018,260.472015 307.238892,263.939819 
	C306.966766,263.996338 306.985046,264.092255 306.989075,263.684204 
	C306.961548,262.191193 306.929932,261.106201 307.056244,259.805786 
	C307.482147,259.357117 307.750153,259.123901 308.018127,258.890656 
	C308.979706,259.172241 309.941254,259.453796 310.673767,259.963318 
	C309.890869,260.267700 309.336975,260.344116 308.783112,260.420502 
	C308.827454,260.613098 308.871765,260.805695 308.916107,260.998291 
	C309.631256,260.804688 310.346436,260.611084 311.061615,260.417480 
	C311.076660,260.978333 311.091705,261.539185 311.091309,262.525177 
z"/>
<path fill="#343031" opacity="1.000000" stroke="none" 
	d="
M308.018005,258.547729 
	C307.750153,259.123901 307.482147,259.357117 306.758606,259.809082 
	C305.907379,260.003693 305.511688,259.979584 305.085022,259.975403 
	C305.054077,259.995300 305.010132,259.936279 305.010132,259.936279 
	C305.621887,258.767914 306.233643,257.599548 306.845428,256.431183 
	C307.236237,257.022369 307.627045,257.613586 308.018005,258.547729 
z"/>
<path fill="#EFEFEF" opacity="1.000000" stroke="none" 
	d="
M306.918701,264.004944 
	C306.020386,263.849548 305.170105,263.685547 304.544861,263.240906 
	C304.769928,262.960266 305.245026,262.920349 305.497772,263.047241 
	C306.162018,263.480164 306.573547,263.786194 306.985046,264.092255 
	C306.985046,264.092255 306.966766,263.996338 306.918701,264.004944 
z"/>
<path fill="#45402F" opacity="1.000000" stroke="none" 
	d="
M122.174332,284.646545 
	C121.165497,284.006348 120.296669,283.189178 119.751328,282.166046 
	C120.982506,282.425385 121.890198,282.890656 122.925659,283.655029 
	C122.786430,284.096344 122.540062,284.268127 122.174332,284.646545 
z"/>
<path fill="#2B2728" opacity="1.000000" stroke="none" 
	d="
M311.044434,260.440491 
	C310.346436,260.611084 309.631256,260.804688 308.916107,260.998291 
	C308.871765,260.805695 308.827454,260.613098 308.783112,260.420502 
	C309.336975,260.344116 309.890869,260.267700 310.754150,260.349609 
	C311.063599,260.507904 311.027252,260.463501 311.044434,260.440491 
z"/>
<path fill="#F1F0F0" opacity="1.000000" stroke="none" 
	d="
M305.245026,262.920349 
	C305.245026,262.920349 304.769928,262.960266 304.532104,262.976624 
	C304.311310,262.067291 304.328369,261.141571 304.677795,260.076050 
	C305.010132,259.936279 305.054077,259.995300 305.174835,260.338867 
	C305.278748,261.428436 305.261871,262.174377 305.245026,262.920349 
z"/>
<path fill="#343031" opacity="1.000000" stroke="none" 
	d="
M311.453644,256.546143 
	C311.423431,256.493256 311.483856,256.599060 311.453644,256.546143 
z"/>
<path fill="#2B2728" opacity="1.000000" stroke="none" 
	d="
M199.772217,152.675903 
	C201.288742,145.471268 202.716644,138.678955 204.144547,131.886658 
	C204.370041,131.863281 204.595520,131.839920 204.821014,131.816559 
	C206.021286,137.347610 207.226120,142.877655 208.420578,148.409973 
	C209.641235,154.063690 210.851715,159.719589 212.139191,165.712219 
	C207.010193,165.712219 202.138885,165.712219 196.963760,165.712219 
	C197.884399,161.439194 198.784012,157.263718 199.772217,152.675903 
z"/>
<path fill="#343031" opacity="1.000000" stroke="none" 
	d="
M175.013153,268.007629 
	C174.195236,269.691559 173.377213,270.970673 172.559204,272.249786 
	C172.146057,272.058807 171.732925,271.867828 171.319778,271.676849 
	C171.319778,269.313629 171.319778,266.950439 171.319778,264.587219 
	C171.625702,264.320984 171.931641,264.054749 172.237564,263.788483 
	C173.162720,265.059937 174.087891,266.331360 175.013153,268.007629 
z"/>
<path fill="#504D4E" opacity="1.000000" stroke="none" 
	d="
M290.841370,270.861877 
	C288.883118,271.998108 287.368439,272.407562 287.348175,269.638916 
	C287.335388,267.890900 287.345795,266.142700 287.345795,263.851257 
	C292.309479,264.819824 291.930450,267.579773 290.841370,270.861877 
z"/>
<path fill="#2B2728" opacity="1.000000" stroke="none" 
	d="
M197.998901,270.929688 
	C197.398071,272.432281 196.798477,273.485138 196.198883,274.537964 
	C195.851334,274.398682 195.503799,274.259369 195.156250,274.120087 
	C195.156250,270.834961 195.156250,267.549866 195.156250,264.264740 
	C195.715240,264.161835 196.274246,264.058929 196.833237,263.956024 
	C197.222214,266.130646 197.611191,268.305267 197.998901,270.929688 
z"/>
<path fill="#45402F" opacity="1.000000" stroke="none" 
	d="
M118.979393,280.589661 
	C118.280571,280.876709 117.189507,281.106506 116.827217,280.694885 
	C114.632988,278.201782 112.570473,279.100433 110.207596,280.305359 
	C111.084106,278.655762 112.199150,277.382263 113.540031,275.850830 
	C115.501030,277.448059 117.212494,278.842041 118.979393,280.589661 
z"/>
<path fill="#45402F" opacity="1.000000" stroke="none" 
	d="
M109.615982,279.909851 
	C109.508835,280.841949 109.087059,281.719513 108.187897,282.553314 
	C107.495003,282.312775 107.262367,282.138855 107.012604,281.987854 
	C107.775520,281.277008 108.538437,280.566162 109.615982,279.909851 
z"/>
<path fill="#45402F" opacity="1.000000" stroke="none" 
	d="
M120.102768,281.631958 
	C119.551674,281.881958 119.042732,281.818634 118.784180,281.349274 
	C119.404686,281.068359 119.774803,281.193481 120.102768,281.631958 
z"/>
<path fill="#242021" opacity="1.000000" stroke="none" 
	d="
M106.774651,282.197449 
	C107.262367,282.138855 107.495003,282.312775 107.842720,282.682983 
	C107.803467,282.988708 107.632019,283.121033 107.179230,283.090881 
	C106.777496,282.754639 106.657089,282.580872 106.774651,282.197449 
z"/>
<path fill="#242021" opacity="1.000000" stroke="none" 
	d="
M305.497772,263.047241 
	C305.261871,262.174377 305.278748,261.428436 305.205780,260.318970 
	C305.511688,259.979584 305.907379,260.003693 306.600708,260.024536 
	C306.929932,261.106201 306.961548,262.191193 306.989075,263.684204 
	C306.573547,263.786194 306.162018,263.480164 305.497772,263.047241 
z"/>
</svg>